<svg width="246" height="39" viewBox="0 0 246 39" fill="none" xmlns="http://www.w3.org/2000/svg">
<path d="M20.015 29.515L0.485 17.95V14.98L19.88 4.585V9.715L6.245 16.51L20.015 24.07V29.515ZM28.655 32.98L23.3 30.685L37.07 0.984998L42.29 3.64L28.655 32.98ZM75.905 31.54C75.035 31.54 74.225 31.42 73.475 31.18C72.725 30.97 72.035 30.64 71.405 30.19C70.805 29.74 70.28 29.17 69.83 28.48C69.41 27.76 69.08 26.905 68.84 25.915C68.6 24.925 68.48 23.8 68.48 22.54V9.94H74.24V22.54C74.24 23.35 74.3 24.04 74.42 24.61C74.57 25.15 74.765 25.6 75.005 25.96C75.275 26.32 75.575 26.59 75.905 26.77C76.235 26.92 76.595 26.995 76.985 26.995C77.585 26.995 78.125 26.89 78.605 26.68C79.085 26.47 79.49 26.17 79.82 25.78C80.18 25.36 80.435 24.85 80.585 24.25C80.765 23.62 80.855 22.885 80.855 22.045V9.94H86.615V27.625C86.615 28.315 86.63 28.93 86.66 29.47C86.72 29.98 86.855 30.49 87.065 31H81.89C81.74 30.7 81.635 30.415 81.575 30.145C81.515 29.845 81.47 29.56 81.44 29.29C81.44 28.99 81.44 28.705 81.44 28.435C81.14 28.945 80.78 29.395 80.36 29.785C79.94 30.175 79.49 30.505 79.01 30.775C78.53 31.015 78.02 31.195 77.48 31.315C76.97 31.465 76.445 31.54 75.905 31.54ZM92.555 9.94H98.45L98.405 15.79L97.775 15.475C97.865 14.575 98.105 13.765 98.495 13.045C98.885 12.295 99.38 11.65 99.98 11.11C100.61 10.57 101.285 10.165 102.005 9.895C102.755 9.595 103.52 9.445 104.3 9.445C105.5 9.445 106.58 9.64 107.54 10.03C108.5 10.42 109.385 11.035 110.195 11.875L107.81 16.735L107.675 17.095L107.225 16.915C107.135 16.675 107.045 16.42 106.955 16.15C106.895 15.88 106.7 15.565 106.37 15.205C105.95 14.905 105.5 14.65 105.02 14.44C104.54 14.23 104.015 14.125 103.445 14.125C102.725 14.125 102.05 14.245 101.42 14.485C100.82 14.695 100.295 15.04 99.845 15.52C99.395 16 99.035 16.615 98.765 17.365C98.495 18.085 98.36 18.97 98.36 20.02V31H92.555V9.94ZM126.35 38.515V29.47C126.08 29.92 125.69 30.295 125.18 30.595C124.7 30.895 124.16 31.12 123.56 31.27C122.96 31.45 122.345 31.54 121.715 31.54C120.215 31.54 118.88 31.285 117.71 30.775C116.57 30.235 115.61 29.485 114.83 28.525C114.08 27.535 113.495 26.365 113.075 25.015C112.655 23.665 112.445 22.165 112.445 20.515C112.445 18.835 112.64 17.32 113.03 15.97C113.45 14.62 114.035 13.465 114.785 12.505C115.565 11.545 116.525 10.795 117.665 10.255C118.835 9.715 120.17 9.445 121.67 9.445C122.24 9.445 122.765 9.505 123.245 9.625C123.725 9.715 124.16 9.85 124.55 10.03C124.94 10.21 125.3 10.45 125.63 10.75C125.96 11.02 126.26 11.35 126.53 11.74V9.94H132.11V38.515H126.35ZM122.66 27.22C123.2 27.22 123.695 27.1 124.145 26.86C124.595 26.59 124.985 26.185 125.315 25.645C125.675 25.105 125.945 24.4 126.125 23.53C126.335 22.66 126.44 21.61 126.44 20.38C126.44 19.12 126.335 18.07 126.125 17.23C125.945 16.39 125.675 15.715 125.315 15.205C124.955 14.695 124.535 14.335 124.055 14.125C123.605 13.885 123.11 13.765 122.57 13.765C121.94 13.765 121.355 13.885 120.815 14.125C120.275 14.365 119.795 14.74 119.375 15.25C118.985 15.76 118.685 16.435 118.475 17.275C118.265 18.115 118.16 19.135 118.16 20.335C118.16 21.535 118.265 22.57 118.475 23.44C118.685 24.31 118.985 25.03 119.375 25.6C119.795 26.14 120.275 26.545 120.815 26.815C121.355 27.085 121.97 27.22 122.66 27.22ZM138.77 22.18L150.74 8.41L151.595 12.19L139.625 25.915L138.77 22.18ZM145.25 31.54C143.24 31.54 141.485 30.985 139.985 29.875C138.515 28.765 137.375 27.145 136.565 25.015C135.785 22.855 135.395 20.23 135.395 17.14C135.395 14.08 135.785 11.455 136.565 9.265C137.375 7.075 138.515 5.41 139.985 4.27C141.485 3.1 143.24 2.515 145.25 2.515C147.26 2.515 149 3.1 150.47 4.27C151.97 5.41 153.11 7.075 153.89 9.265C154.7 11.455 155.105 14.08 155.105 17.14C155.105 20.23 154.7 22.855 153.89 25.015C153.11 27.145 151.97 28.765 150.47 29.875C149 30.985 147.26 31.54 145.25 31.54ZM145.25 27.265C146.33 27.265 147.2 26.875 147.86 26.095C148.55 25.285 149.06 24.13 149.39 22.63C149.72 21.13 149.885 19.3 149.885 17.14C149.885 14.98 149.72 13.15 149.39 11.65C149.06 10.15 148.55 9.01 147.86 8.23C147.2 7.42 146.33 7.015 145.25 7.015C144.2 7.015 143.33 7.42 142.64 8.23C141.95 9.01 141.44 10.15 141.11 11.65C140.78 13.15 140.615 14.98 140.615 17.14C140.615 19.3 140.78 21.13 141.11 22.63C141.44 24.13 141.95 25.285 142.64 26.095C143.33 26.875 144.2 27.265 145.25 27.265ZM160.055 31V26.5H165.14V14.395H160.28V9.94H170.9V26.5H175.535V31H160.055ZM167.75 6.745C166.79 6.745 165.965 6.43 165.275 5.8C164.615 5.14 164.285 4.36 164.285 3.46C164.285 2.5 164.6 1.705 165.23 1.075C165.89 0.444998 166.73 0.129998 167.75 0.129998C168.68 0.129998 169.49 0.459998 170.18 1.12C170.9 1.78 171.26 2.56 171.26 3.46C171.26 4.36 170.9 5.14 170.18 5.8C169.49 6.43 168.68 6.745 167.75 6.745ZM190.79 31.54C189.47 31.54 188.21 31.42 187.01 31.18C185.81 30.94 184.685 30.58 183.635 30.1C182.615 29.62 181.685 28.975 180.845 28.165L183.23 23.665L183.41 23.305L183.815 23.53C183.875 23.74 183.95 23.98 184.04 24.25C184.16 24.49 184.4 24.775 184.76 25.105C185.54 25.735 186.425 26.23 187.415 26.59C188.405 26.92 189.545 27.085 190.835 27.085C191.585 27.085 192.215 27.01 192.725 26.86C193.265 26.68 193.685 26.44 193.985 26.14C194.285 25.81 194.435 25.465 194.435 25.105C194.435 24.775 194.33 24.49 194.12 24.25C193.94 24.01 193.655 23.8 193.265 23.62C192.875 23.41 192.38 23.215 191.78 23.035C191.18 22.825 190.46 22.6 189.62 22.36C188.09 21.97 186.77 21.49 185.66 20.92C184.55 20.32 183.695 19.6 183.095 18.76C182.495 17.92 182.195 16.915 182.195 15.745C182.195 14.575 182.54 13.525 183.23 12.595C183.95 11.635 184.94 10.87 186.2 10.3C187.49 9.73 188.975 9.445 190.655 9.445C191.495 9.445 192.305 9.52 193.085 9.67C193.895 9.79 194.645 9.985 195.335 10.255C196.055 10.495 196.73 10.825 197.36 11.245C197.99 11.635 198.59 12.1 199.16 12.64L196.46 16.51L196.19 16.87L195.785 16.555C195.755 16.315 195.68 16.09 195.56 15.88C195.47 15.67 195.26 15.4 194.93 15.07C194.33 14.65 193.67 14.35 192.95 14.17C192.23 13.99 191.495 13.9 190.745 13.9C189.815 13.9 188.99 14.05 188.27 14.35C187.58 14.65 187.235 15.1 187.235 15.7C187.235 16.06 187.4 16.39 187.73 16.69C188.09 16.96 188.63 17.215 189.35 17.455C190.1 17.695 191.045 17.965 192.185 18.265C193.895 18.655 195.275 19.15 196.325 19.75C197.405 20.35 198.2 21.07 198.71 21.91C199.22 22.75 199.475 23.725 199.475 24.835C199.475 26.035 199.13 27.145 198.44 28.165C197.78 29.185 196.805 30.01 195.515 30.64C194.225 31.24 192.65 31.54 190.79 31.54ZM213.65 31.54C212.15 31.54 210.755 31.3 209.465 30.82C208.175 30.31 207.05 29.59 206.09 28.66C205.16 27.73 204.425 26.59 203.885 25.24C203.345 23.89 203.075 22.36 203.075 20.65C203.075 18.91 203.33 17.35 203.84 15.97C204.38 14.56 205.1 13.375 206 12.415C206.9 11.455 207.95 10.72 209.15 10.21C210.38 9.7 211.7 9.445 213.11 9.445C214.34 9.445 215.495 9.67 216.575 10.12C217.685 10.54 218.66 11.185 219.5 12.055C220.37 12.925 221.045 14.005 221.525 15.295C222.035 16.585 222.29 18.07 222.29 19.75C222.29 20.08 222.29 20.485 222.29 20.965C222.29 21.445 222.275 21.85 222.245 22.18H208.61C208.67 23.02 208.85 23.755 209.15 24.385C209.48 24.985 209.885 25.495 210.365 25.915C210.875 26.305 211.43 26.605 212.03 26.815C212.66 26.995 213.29 27.085 213.92 27.085C214.55 27.085 215.135 27.04 215.675 26.95C216.245 26.83 216.785 26.635 217.295 26.365C217.835 26.095 218.345 25.705 218.825 25.195L221.705 28.03C221.015 28.84 220.25 29.515 219.41 30.055C218.57 30.565 217.655 30.94 216.665 31.18C215.705 31.42 214.7 31.54 213.65 31.54ZM208.655 17.905H216.8C216.8 17.245 216.71 16.66 216.53 16.15C216.38 15.64 216.125 15.22 215.765 14.89C215.435 14.56 215.03 14.32 214.55 14.17C214.07 13.99 213.515 13.9 212.885 13.9C212.345 13.9 211.835 13.975 211.355 14.125C210.875 14.275 210.44 14.515 210.05 14.845C209.69 15.175 209.39 15.595 209.15 16.105C208.91 16.615 208.745 17.215 208.655 17.905ZM225.71 29.515V24.295L239.435 16.51L225.755 9.715V4.585L245.24 14.98V17.95L225.71 29.515Z" fill="#EEFFFF"/>
<path d="M52.325 31V7.735H44.945V2.965H65.6V7.735H57.77V31H52.325Z" fill="#40E0D0"/>
</svg>
